PathFileType	4	(X/Y/Z)	E:\3-PhD\Data\MocapData\ElaboratedData\012\pre\dynamicElaborations\RunA1\RunA1.trc
DataRate	CameraRate	NumFrames	NumMarkers	Units	OrigDataRate	DataStartFrame
200	200	4	56	mm	200	473
Frame#	Time	FHD			LBHD			RBHD			C7			T10			CLAV			LSHO			LUUPA			LMUPA			LDUPA			LLEP			LMEP			LRAD			LUL			LRFIN			RSHO			RUPA1			RMUPA			RDUPA			RLEP			RMEP			RRAD			RUL			RUFIN			LASI			RASI			USACR			LSACR			RSACR			LTHI1			LTHI2			LTHI3			LTHI4			LLFC			LTIB1			LTIB2			LTIB3			LTIB4			LHEE			LMT1			LMT5			LMT2			RTHI			RTHI2			RTHI3			RTHI4			RLFC			RTIB1			RTIB2			RTIB3			RTIB4			RLMAL			RHEE			RMT1			RMT2			RMT5		
		X1	Y1	Z1	X2	Y2	Z2	X3	Y3	Z3	X4	Y4	Z4	X5	Y5	Z5	X6	Y6	Z6	X7	Y7	Z7	X8	Y8	Z8	X9	Y9	Z9	X10	Y10	Z10	X11	Y11	Z11	X12	Y12	Z12	X13	Y13	Z13	X14	Y14	Z14	X15	Y15	Z15	X16	Y16	Z16	X17	Y17	Z17	X18	Y18	Z18	X19	Y19	Z19	X20	Y20	Z20	X21	Y21	Z21	X22	Y22	Z22	X23	Y23	Z23	X24	Y24	Z24	X25	Y25	Z25	X26	Y26	Z26	X27	Y27	Z27	X28	Y28	Z28	X29	Y29	Z29	X30	Y30	Z30	X31	Y31	Z31	X32	Y32	Z32	X33	Y33	Z33	X34	Y34	Z34	X35	Y35	Z35	X36	Y36	Z36	X37	Y37	Z37	X38	Y38	Z38	X39	Y39	Z39	X40	Y40	Z40	X41	Y41	Z41	X42	Y42	Z42	X43	Y43	Z43	X44	Y44	Z44	X45	Y45	Z45	X46	Y46	Z46	X47	Y47	Z47	X48	Y48	Z48	X49	Y49	Z49	X50	Y50	Z50	X51	Y51	Z51	X52	Y52	Z52	X53	Y53	Z53	X54	Y54	Z54	X55	Y55	Z55	X56	Y56	Z56	

533	2.660000	-1883.851445	1796.245802	403.931559	-2033.624459	1758.925328	300.278020	-2021.843543	1752.530602	452.570032	-2059.535384	1598.120759	397.842974	-2212.993727	1289.999797	399.582601	-1946.192582	1491.536687	360.844626	-1985.840857	1595.847874	230.158958	-2116.694355	1473.547908	72.626556	-2098.245701	1429.627978	66.950850	-2155.779463	1419.758941	49.297078	-2190.267367	1344.771049	14.623847	-2222.432203	1326.068329	94.488504	-2040.396962	1106.369523	34.751358	-2075.820811	1095.964468	-33.512344	-1997.437530	1032.547531	27.317174	-1929.951657	1530.979293	528.552649	-2057.054126	1353.727222	650.581456	-2026.379991	1316.068915	647.983784	-2075.721972	1287.226992	659.337049	-2088.156736	1212.811976	661.628158	-2140.070195	1209.937011	589.206835	-1884.867915	1144.067281	476.443489	-1880.369147	1075.809051	513.563315	-1810.094380	1110.813025	438.799677	-2127.800777	1053.349166	249.222476	-2132.560772	1022.256103	475.904667	-2274.999702	1159.296342	379.832842	-2295.531218	1132.163135	348.998835	-2291.004334	1129.954481	405.736690	-2133.328659	819.621093	156.241460	-2056.108813	779.678640	157.664159	-2020.663551	806.300676	175.932686	-2048.359940	720.404767	162.514445	-1976.079796	583.466727	178.962773	-1938.311453	404.374465	254.023765	-1971.151069	359.178537	190.133488	-1938.779005	354.707663	222.881379	-1947.501530	279.239972	260.178429	-2050.910531	93.832879	298.733863	-1842.385803	112.954326	308.487154	-1868.924679	76.669372	216.683601	-1832.504880	106.520000	254.095454	-2301.493812	720.050475	508.861691	-2278.357951	656.478961	499.251009	-2247.015634	648.915922	491.639020	-2326.958759	592.036220	481.955982	-2378.227747	500.512798	449.925572	-2486.148920	439.785156	395.993498	-2569.476478	505.036710	425.164270	-2571.800906	462.906893	408.499753	-2615.238455	450.312113	367.803132	-2786.765046	517.250693	352.960785	-2804.584799	571.587610	300.685101	-2833.245648	349.191700	272.827823	-2838.021526	348.711396	316.097610	-2866.259723	391.316032	363.967212	
534	2.665000	-1855.970563	1795.799378	401.909858	-2005.371952	1758.424183	297.753343	-1994.020388	1751.817488	450.069525	-2031.528938	1597.859107	394.805112	-2184.475485	1289.806223	398.668307	-1918.437401	1490.716532	358.985608	-1957.625033	1593.614371	226.555074	-2084.190789	1464.120302	69.744792	-2064.619039	1420.522015	66.055973	-2121.478643	1408.499573	47.786374	-2153.620377	1332.241545	14.921422	-2186.618449	1314.449983	94.645170	-1995.286588	1100.741572	44.624437	-2029.285568	1086.933530	-23.786566	-1948.072668	1029.913014	39.327305	-1902.884102	1530.034467	527.479560	-2036.012255	1356.657417	648.972905	-2006.150317	1318.044992	647.127673	-2056.424606	1290.722597	658.235894	-2070.286480	1216.657826	661.647482	-2120.558426	1213.751991	588.516247	-1868.558359	1127.041830	483.419637	-1869.018207	1060.246772	523.478678	-1795.562929	1087.118059	448.551715	-2100.237654	1053.667599	247.435580	-2102.157552	1022.197695	474.906883	-2246.928627	1157.229296	380.981257	-2267.583252	1130.102951	350.482355	-2262.478684	1127.848575	407.240916	-2109.900080	816.211333	156.483659	-2033.694204	774.603804	156.722791	-1996.954373	800.873764	172.236934	-2027.134999	715.300914	162.124261	-1956.835669	577.168660	177.965118	-1922.425127	397.501167	253.264945	-1957.815508	352.881240	190.207976	-1924.904445	347.731209	222.246869	-1935.122317	272.747575	260.203426	-2043.603966	90.718797	301.165525	-1834.363696	103.649127	307.904163	-1863.366541	68.820593	216.128620	-1825.443704	97.133008	253.276764	-2263.735950	716.437849	508.959611	-2238.652834	653.420863	499.685584	-2206.847256	646.795536	492.270780	-2285.134195	587.509363	482.475428	-2333.150664	496.410600	450.812821	-2441.834520	439.549470	396.528539	-2523.176329	507.384852	426.076177	-2526.696967	465.839499	409.852169	-2569.715616	454.923815	369.324188	-2739.897050	528.166124	353.465034	-2756.599663	582.835495	301.206620	-2790.568598	360.874994	275.036952	-2795.039887	360.719823	318.330209	-2821.859620	404.201691	366.141032	
535	2.670000	-1828.079174	1795.116696	399.912049	-1977.111606	1757.738582	295.241321	-1966.224819	1750.941316	447.581837	-2003.706551	1597.288544	391.737461	-2155.951494	1289.119853	397.738301	-1890.743493	1489.614152	357.184797	-1929.408141	1591.172142	222.943391	-2051.282159	1454.407478	67.254975	-2030.500044	1411.269162	65.453293	-2086.597134	1397.005537	46.665945	-2116.032701	1319.495910	15.547106	-2150.000203	1302.516954	94.981247	-1949.464128	1095.793494	55.246570	-1981.786615	1078.521688	-13.220012	-1898.122089	1028.348460	52.075551	-1876.149242	1528.996164	526.541603	-2015.045609	1359.380028	647.111275	-1986.028222	1319.840583	645.810489	-2037.157610	1294.034964	656.765812	-2052.496515	1220.493658	661.328193	-2100.954923	1217.403823	587.468882	-1853.604977	1110.149666	491.289304	-1859.050281	1045.320554	534.195209	-1782.916984	1063.755859	459.529980	-2072.573290	1053.693132	245.525113	-2071.775765	1021.818062	473.839390	-2218.715444	1154.917532	382.092657	-2239.497551	1127.863031	351.965766	-2233.865529	1125.509091	408.705835	-2086.657211	812.521993	156.785072	-2011.624363	769.085827	155.970074	-1973.639531	794.822304	168.772161	-2006.395379	709.793694	161.900157	-1938.099908	570.493987	177.181324	-1907.721646	390.230607	252.702802	-1945.357514	346.373407	190.216371	-1912.181841	340.429543	221.769430	-1924.162500	265.962728	260.196291	-2038.076342	87.442161	302.908986	-1828.242139	94.425075	307.583975	-1859.259128	61.496909	215.515281	-1820.053193	88.049463	252.777062	-2225.566911	712.814303	509.024124	-2198.454989	650.477107	500.112086	-2166.202743	644.830586	492.886027	-2242.652875	583.076127	482.983689	-2287.244151	492.314630	451.744768	-2396.432211	439.043604	397.156708	-2475.910308	509.044335	427.206328	-2480.828036	468.028125	411.135197	-2523.145811	458.802637	371.123247	-2691.787375	537.623867	354.519152	-2707.858187	592.538649	302.214302	-2746.293809	370.968935	277.846121	-2750.269552	371.119622	321.191445	-2775.694106	415.320441	368.958845	
536	2.675000	-1800.183126	1794.217962	397.930959	-1948.851638	1756.878970	292.736764	-1938.464095	1749.924016	445.107997	-1976.060854	1596.410387	388.651846	-2127.412751	1287.944071	396.769325	-1863.082184	1488.237994	355.454788	-1901.186525	1588.556787	219.343828	-2017.937882	1444.533082	65.216133	-1995.853262	1402.002347	65.186091	-2051.084597	1385.417967	45.969669	-2077.471289	1306.676072	16.529379	-2112.525462	1290.356413	95.522218	-1903.025874	1091.709794	66.598001	-1933.400327	1070.912548	-1.793911	-1847.724545	1028.010357	65.546072	-1849.751762	1527.874855	525.739576	-1994.128744	1361.882443	645.015563	-1965.975620	1321.450351	644.069300	-2017.883612	1297.145814	654.954966	-2034.790782	1224.311157	660.683118	-2081.287116	1220.881083	586.076822	-1840.000127	1093.666589	500.029268	-1850.393182	1031.303490	545.661775	-1772.137175	1041.094841	471.668186	-2044.840481	1053.406866	243.501363	-2041.395871	1021.108447	472.696268	-2190.347854	1152.410719	383.130223	-2211.264546	1125.478773	353.409977	-2205.143381	1122.977002	410.086333	-2063.655318	808.548410	157.084366	-1989.955733	763.125058	155.343613	-1950.805284	788.114924	165.630828	-1986.199872	703.878666	161.791235	-1919.935711	563.433609	176.589504	-1894.209012	382.633220	252.397001	-1933.702679	339.666238	190.200020	-1900.554330	332.865502	221.530073	-1914.560955	258.972520	260.248344	-2034.094469	83.969691	304.053380	-1823.770397	85.687984	307.583344	-1856.307578	55.013443	214.905667	-1816.086890	79.668110	252.648531	-2186.966551	709.244337	509.088298	-2157.742311	647.734879	500.562693	-2125.085673	643.099818	493.486724	-2199.504937	578.824359	483.505453	-2240.503701	488.291143	452.715899	-2349.988763	438.303989	397.871566	-2427.754227	510.056868	428.549436	-2434.240680	469.501983	412.320539	-2475.672569	461.953551	373.105637	-2642.648530	545.574298	356.078993	-2658.540649	600.694463	303.729314	-2700.584488	379.431896	281.159877	-2703.875767	379.842523	324.583865	-2727.953407	424.589349	372.328735	
